<svg id="visual" viewBox="0 0 960 540" width="960" height="540"
    xmlns="http://www.w3.org/2000/svg"
    xmlns:xlink="http://www.w3.org/1999/xlink" version="1.1">
    <path d="M0 147L22.8 129.8C45.7 112.7 91.3 78.3 137 69.3C182.7 60.3 228.3 76.7 274 89.3C319.7 102 365.3 111 411.2 97.5C457 84 503 48 548.8 35.3C594.7 22.7 640.3 33.3 686 43.2C731.7 53 777.3 62 823 55.7C868.7 49.3 914.3 27.7 937.2 16.8L960 6L960 0L937.2 0C914.3 0 868.7 0 823 0C777.3 0 731.7 0 686 0C640.3 0 594.7 0 548.8 0C503 0 457 0 411.2 0C365.3 0 319.7 0 274 0C228.3 0 182.7 0 137 0C91.3 0 45.7 0 22.8 0L0 0Z" fill="#e2efeb"></path>
    <path d="M0 212L22.8 217.3C45.7 222.7 91.3 233.3 137 220.7C182.7 208 228.3 172 274 172.8C319.7 173.7 365.3 211.3 411.2 223C457 234.7 503 220.3 548.8 208.7C594.7 197 640.3 188 686 214.2C731.7 240.3 777.3 301.7 823 310.7C868.7 319.7 914.3 276.3 937.2 254.7L960 233L960 4L937.2 14.8C914.3 25.7 868.7 47.3 823 53.7C777.3 60 731.7 51 686 41.2C640.3 31.3 594.7 20.7 548.8 33.3C503 46 457 82 411.2 95.5C365.3 109 319.7 100 274 87.3C228.3 74.7 182.7 58.3 137 67.3C91.3 76.3 45.7 110.7 22.8 127.8L0 145Z" fill="#c9d5d2"></path>
    <path d="M0 336L22.8 333.3C45.7 330.7 91.3 325.3 137 312.7C182.7 300 228.3 280 274 280C319.7 280 365.3 300 411.2 314.5C457 329 503 338 548.8 338C594.7 338 640.3 329 686 335.2C731.7 341.3 777.3 362.7 823 391.3C868.7 420 914.3 456 937.2 474L960 492L960 231L937.2 252.7C914.3 274.3 868.7 317.7 823 308.7C777.3 299.7 731.7 238.3 686 212.2C640.3 186 594.7 195 548.8 206.7C503 218.3 457 232.7 411.2 221C365.3 209.3 319.7 171.7 274 170.8C228.3 170 182.7 206 137 218.7C91.3 231.3 45.7 220.7 22.8 215.3L0 210Z" fill="#b0bcb9"></path>
    <path d="M0 498L22.8 500.7C45.7 503.3 91.3 508.7 137 509.5C182.7 510.3 228.3 506.7 274 495C319.7 483.3 365.3 463.7 411.2 458.3C457 453 503 462 548.8 475.5C594.7 489 640.3 507 686 517.8C731.7 528.7 777.3 532.3 823 534.2C868.7 536 914.3 536 937.2 536L960 536L960 490L937.2 472C914.3 454 868.7 418 823 389.3C777.3 360.7 731.7 339.3 686 333.2C640.3 327 594.7 336 548.8 336C503 336 457 327 411.2 312.5C365.3 298 319.7 278 274 278C228.3 278 182.7 298 137 310.7C91.3 323.3 45.7 328.7 22.8 331.3L0 334Z" fill="#98a4a1"></path>
    <path d="M0 541L22.8 541C45.7 541 91.3 541 137 541C182.7 541 228.3 541 274 541C319.7 541 365.3 541 411.2 541C457 541 503 541 548.8 541C594.7 541 640.3 541 686 541C731.7 541 777.3 541 823 541C868.7 541 914.3 541 937.2 541L960 541L960 534L937.2 534C914.3 534 868.7 534 823 532.2C777.3 530.3 731.7 526.7 686 515.8C640.3 505 594.7 487 548.8 473.5C503 460 457 451 411.2 456.3C365.3 461.7 319.7 481.3 274 493C228.3 504.7 182.7 508.3 137 507.5C91.3 506.7 45.7 501.3 22.8 498.7L0 496Z" fill="#818c89"></path>
</svg>