<!--?xml version="1.0" standalone="no"?-->
<svg id="sw-js-blob-svg" viewBox="0 0 100 100"
    xmlns="http://www.w3.org/2000/svg">
    <defs>
        <linearGradient id="sw-gradient" x1="0" x2="1" y1="1" y2="0">
            <stop id="stop1" stop-color="rgba(45, 55, 72, 1)" offset="0%"></stop>
            <stop id="stop2" stop-color="rgba(251, 168, 31, 1)" offset="100%"></stop>
        </linearGradient>
    </defs>
    <path fill="rgba(45, 55, 72, 1)" d="M21.3,-38.9C26.3,-33.9,28.4,-25.7,30.7,-18.7C33,-11.7,35.6,-5.9,37,0.8C38.4,7.5,38.7,15,35.6,20.7C32.6,26.4,26.1,30.3,19.6,33.7C13.1,37.2,6.6,40.2,0,40.1C-6.5,40,-12.9,36.8,-18.1,32.6C-23.3,28.4,-27.1,23.1,-31.7,17.5C-36.4,11.9,-41.8,6,-42.4,-0.3C-43,-6.7,-38.8,-13.3,-33.7,-18.2C-28.7,-23.1,-22.8,-26.2,-17,-30.8C-11.3,-35.4,-5.6,-41.6,1.2,-43.7C8.1,-45.9,16.2,-44,21.3,-38.9Z" width="100%" height="100%" transform="translate(50 50)" stroke-width="0" style="transition: all 0.3s ease 0s;" stroke="rgba(45, 55, 72, 1)"></path>
</svg>